<?xml version="1.0" standalone="no"?>
<!DOCTYPE svg PUBLIC "-//W3C//DTD SVG 20010904//EN"
 "http://www.w3.org/TR/2001/REC-SVG-20010904/DTD/svg10.dtd">
<svg version="1.0" xmlns="http://www.w3.org/2000/svg"
 width="512.000000pt" height="512.000000pt" viewBox="0 0 512.000000 512.000000"
 preserveAspectRatio="xMidYMid meet">

<g transform="translate(0.000000,512.000000) scale(0.100000,-0.100000)"
fill="#000000" stroke="none">
<path d="M4540 4364 c-39 -14 -219 -190 -1310 -1280 l-1265 -1264 -665 666
c-496 497 -676 671 -709 686 -59 27 -144 26 -207 -1 -61 -27 -331 -295 -359
-356 -27 -58 -30 -124 -10 -186 16 -51 61 -98 909 -947 540 -541 906 -901 930
-914 22 -11 65 -23 97 -25 47 -5 66 -1 115 21 53 24 199 167 1531 1499 1042
1043 1478 1485 1494 1517 32 62 33 168 2 225 -27 50 -306 327 -353 350 -48 24
-144 28 -200 9z"/>
</g>
</svg>
