<?xml version="1.0" standalone="no"?>
<!DOCTYPE svg PUBLIC "-//W3C//DTD SVG 20010904//EN"
 "http://www.w3.org/TR/2001/REC-SVG-20010904/DTD/svg10.dtd">
<svg version="1.0" xmlns="http://www.w3.org/2000/svg"
 width="512.000000pt" height="512.000000pt" viewBox="0 0 512.000000 512.000000"
 preserveAspectRatio="xMidYMid meet">

<g transform="translate(0.000000,512.000000) scale(0.100000,-0.100000)"
fill="#000000" stroke="none">
<path d="M2441 4304 c-253 -68 -410 -331 -346 -579 67 -256 329 -415 580 -350
190 50 330 207 358 401 48 331 -270 615 -592 528z"/>
<path d="M2441 3024 c-253 -68 -410 -331 -346 -579 67 -256 329 -415 580 -350
190 50 330 207 358 401 48 331 -270 615 -592 528z"/>
<path d="M2441 1744 c-253 -68 -410 -331 -346 -579 67 -256 329 -415 580 -350
190 50 330 207 358 401 48 331 -270 615 -592 528z"/>
</g>
</svg>
